<svg xmlns="http://www.w3.org/2000/svg" width="585.2" height="232.968" viewBox="0 0 585.2 232.968">
  <g id="logo" transform="translate(-182.7 -357.097)">
    <g id="Слой_1">
      <line id="Line_11" data-name="Line 11" x2="582.2" transform="translate(184.2 588.3)" fill="none" stroke="#000" stroke-linecap="round" stroke-miterlimit="10" stroke-width="3"/>
      <g id="Group_1237" data-name="Group 1237">
        <path id="Path_3492" data-name="Path 3492" d="M325.7,554.1a4.624,4.624,0,0,1-3.1-1,3.285,3.285,0,0,1-1.3-2.8,3.555,3.555,0,0,1,1.4-2.9,6.006,6.006,0,0,1,3.7-1,14.874,14.874,0,0,1,3.6.5v-.4a3.244,3.244,0,0,0-.9-2.4,3.537,3.537,0,0,0-2.6-.8,7.988,7.988,0,0,0-3.6.9l-.5-1.5a9.961,9.961,0,0,1,4.3-1,5.262,5.262,0,0,1,3.9,1.3,4.8,4.8,0,0,1,1.2,3.5v7.3H330V552A5.17,5.17,0,0,1,325.7,554.1Zm.4-1.4a4.47,4.47,0,0,0,2.8-.9,2.8,2.8,0,0,0,1.2-2.3v-1.1a14.085,14.085,0,0,0-3.5-.5,4.209,4.209,0,0,0-2.6.7,2.019,2.019,0,0,0-.9,1.8,1.965,1.965,0,0,0,.9,1.7A3.281,3.281,0,0,0,326.1,552.7Z" stroke="#000" stroke-miterlimit="10" stroke-width="1.5"/>
        <path id="Path_3493" data-name="Path 3493" d="M342.5,553.9V542h8.1v1.6h-6.3V554l-1.8-.1Z" stroke="#000" stroke-miterlimit="10" stroke-width="1.5"/>
        <path id="Path_3494" data-name="Path 3494" d="M365.3,554.1a5.728,5.728,0,0,1-4.2-1.7,6.444,6.444,0,0,1-1.7-4.5,6.29,6.29,0,0,1,1.6-4.4,5.386,5.386,0,0,1,4.1-1.8,5.1,5.1,0,0,1,4.1,1.8,6.792,6.792,0,0,1,1.5,4.5v.6h-9.5a4.232,4.232,0,0,0,1.4,2.9,4.105,4.105,0,0,0,2.8,1.1,5.334,5.334,0,0,0,3.8-1.7l1.1,1A6.61,6.61,0,0,1,365.3,554.1Zm-4.2-6.9h7.7a5.365,5.365,0,0,0-1.1-2.9,3.218,3.218,0,0,0-2.7-1.1,3.631,3.631,0,0,0-2.6,1.1A5.2,5.2,0,0,0,361.1,547.2Z" stroke="#000" stroke-miterlimit="10" stroke-width="1.5"/>
        <path id="Path_3495" data-name="Path 3495" d="M380.7,553.9V542h1.8v5.2h6.9V542h1.8v11.9h-1.8v-5.2h-6.9v5.2Z" stroke="#000" stroke-miterlimit="10" stroke-width="1.5"/>
        <path id="Path_3496" data-name="Path 3496" d="M404.9,553.9V543.5h-4.3v-1.6H411v1.6h-4.3v10.4Z" stroke="#000" stroke-miterlimit="10" stroke-width="1.5"/>
        <path id="Path_3497" data-name="Path 3497" d="M425.9,554.1a6.223,6.223,0,0,1-4.4-10.6,5.88,5.88,0,0,1,4.4-1.8,6.607,6.607,0,0,1,4.8,2.1l-1.1,1.2a4.88,4.88,0,0,0-3.7-1.8,3.9,3.9,0,0,0-3,1.4,4.79,4.79,0,0,0-1.2,3.3,4.446,4.446,0,0,0,1.3,3.3,4.1,4.1,0,0,0,3.1,1.4,4.843,4.843,0,0,0,3.6-1.8l1.2,1.1A6.926,6.926,0,0,1,425.9,554.1Z" stroke="#000" stroke-miterlimit="10" stroke-width="1.5"/>
        <path id="Path_3498" data-name="Path 3498" d="M443.5,553.9V543.5h-4.3v-1.6h10.3v1.6h-4.3v10.4Z" stroke="#000" stroke-miterlimit="10" stroke-width="1.5"/>
        <path id="Path_3499" data-name="Path 3499" d="M459.1,553.9V542h5.8a4.655,4.655,0,0,1,2.8.8,2.656,2.656,0,0,1,1.1,2.2,2.758,2.758,0,0,1-2,2.7c1.8.5,2.6,1.5,2.6,3a2.851,2.851,0,0,1-1.2,2.4,5.075,5.075,0,0,1-3.2.9h-5.9v-.1Zm1.8-6.9h3.7a3.453,3.453,0,0,0,1.8-.5,1.75,1.75,0,0,0,.7-1.4,1.426,1.426,0,0,0-.6-1.2,2.969,2.969,0,0,0-1.8-.5H461V547h-.1Zm0,5.3h4a3.939,3.939,0,0,0,2-.5,1.683,1.683,0,0,0,.7-1.5,1.723,1.723,0,0,0-.8-1.4,4.473,4.473,0,0,0-2.2-.5h-3.7Z" stroke="#000" stroke-miterlimit="10" stroke-width="1.5"/>
        <path id="Path_3500" data-name="Path 3500" d="M489.5,552.3a6.105,6.105,0,0,1-4.5,1.8,5.88,5.88,0,0,1-4.4-1.8,6.2,6.2,0,0,1,4.4-10.6,5.88,5.88,0,0,1,4.4,1.8,6.039,6.039,0,0,1,1.8,4.4A5.586,5.586,0,0,1,489.5,552.3Zm-4.4.2a4.224,4.224,0,0,0,3.2-1.3,4.79,4.79,0,0,0,1.2-3.3,4.446,4.446,0,0,0-1.3-3.3,4.314,4.314,0,0,0-3.2-1.4,3.95,3.95,0,0,0-3.1,1.4,4.79,4.79,0,0,0-1.2,3.3,4.446,4.446,0,0,0,1.3,3.3A3.871,3.871,0,0,0,485.1,552.5Z" stroke="#000" stroke-miterlimit="10" stroke-width="1.5"/>
        <path id="Path_3501" data-name="Path 3501" d="M515.3,553.9V542h1.8v5.2H524V542h1.8v11.9H524v-5.2h-7v5.2Z" stroke="#000" stroke-miterlimit="10" stroke-width="1.5"/>
        <path id="Path_3502" data-name="Path 3502" d="M541.8,554.1a5.728,5.728,0,0,1-4.2-1.7,6.444,6.444,0,0,1-1.7-4.5,6.29,6.29,0,0,1,1.6-4.4,5.385,5.385,0,0,1,4.1-1.8,5.1,5.1,0,0,1,4.1,1.8,6.792,6.792,0,0,1,1.5,4.5v.6h-9.5a4.232,4.232,0,0,0,1.4,2.9,4.105,4.105,0,0,0,2.8,1.1,5.334,5.334,0,0,0,3.8-1.7l1.1,1A6.462,6.462,0,0,1,541.8,554.1Zm-4.1-6.9h7.7a5.365,5.365,0,0,0-1.1-2.9,3.218,3.218,0,0,0-2.7-1.1,3.631,3.631,0,0,0-2.6,1.1A4.607,4.607,0,0,0,537.7,547.2Z" stroke="#000" stroke-miterlimit="10" stroke-width="1.5"/>
        <path id="Path_3503" data-name="Path 3503" d="M555.4,556.8v-4.6h1.3c1.1-2,1.6-4.7,1.6-8.3v-2.1h8.5v10.4h1.8l-.3,4.6h-1.5v-3h-9.7l-.3,3Zm3.2-4.5H565v-8.8h-5v1.7A14.726,14.726,0,0,1,558.6,552.3Z" stroke="#000" stroke-miterlimit="10" stroke-width="1.5"/>
        <path id="Path_3504" data-name="Path 3504" d="M578,553.9V542h5.8a4.655,4.655,0,0,1,2.8.8,2.656,2.656,0,0,1,1.1,2.2,2.758,2.758,0,0,1-2,2.7c1.8.5,2.6,1.5,2.6,3a2.851,2.851,0,0,1-1.2,2.4,5.074,5.074,0,0,1-3.2.9H578Zm1.8-6.9h3.7a3.453,3.453,0,0,0,1.8-.5,1.75,1.75,0,0,0,.7-1.4,1.426,1.426,0,0,0-.6-1.2,2.969,2.969,0,0,0-1.8-.5h-3.7V547h-.1Zm0,5.3h4a3.939,3.939,0,0,0,2-.5,1.683,1.683,0,0,0,.7-1.5,1.723,1.723,0,0,0-.8-1.4,4.473,4.473,0,0,0-2.2-.5h-3.7Z" stroke="#000" stroke-miterlimit="10" stroke-width="1.5"/>
        <path id="Path_3505" data-name="Path 3505" d="M598.5,553.9V542h1.8v9.4l7.1-9.4h1.7v11.9h-1.8v-9.4l-7.1,9.4Z" stroke="#000" stroke-miterlimit="10" stroke-width="1.5"/>
        <path id="Path_3506" data-name="Path 3506" d="M618.5,553.9l4.9-6.8-4.6-5.1h2.1l6.1,6.9V542h1.8v6.9l6.1-6.9H637l-4.6,5.1,4.9,6.8h-2.1l-4-5.6-2.4,2.7v2.9H627V551l-2.4-2.7-4,5.6h-2.1Z" stroke="#000" stroke-miterlimit="10" stroke-width="1.5"/>
        <path id="Path_3507" data-name="Path 3507" d="M646.6,553.9V542h1.8v9.4l7.1-9.4h1.7v11.9h-1.8v-9.4l-7.1,9.4Z" stroke="#000" stroke-miterlimit="10" stroke-width="1.5"/>
        <path id="Path_3508" data-name="Path 3508" d="M668.1,553.9V542h1.7l4.5,6.3,4.5-6.3h1.7v11.9h-1.8v-9.1l-4.4,6.1-4.4-6.1v9.1Z" stroke="#000" stroke-miterlimit="10" stroke-width="1.5"/>
        <path id="Path_3509" data-name="Path 3509" d="M701.2,552.3a6.105,6.105,0,0,1-4.5,1.8,5.881,5.881,0,0,1-4.4-1.8,6.223,6.223,0,1,1,10.6-4.4A5.586,5.586,0,0,1,701.2,552.3Zm-4.4.2a4.224,4.224,0,0,0,3.2-1.3,4.79,4.79,0,0,0,1.2-3.3,4.446,4.446,0,0,0-1.3-3.3,4.314,4.314,0,0,0-3.2-1.4,3.95,3.95,0,0,0-3.1,1.4,4.79,4.79,0,0,0-1.2,3.3,4.446,4.446,0,0,0,1.3,3.3A3.871,3.871,0,0,0,696.8,552.5Z" stroke="#000" stroke-miterlimit="10" stroke-width="1.5"/>
        <path id="Path_3510" data-name="Path 3510" d="M718.5,554.1a6.223,6.223,0,0,1-4.4-10.6,5.88,5.88,0,0,1,4.4-1.8,6.607,6.607,0,0,1,4.8,2.1l-1.1,1.2a4.88,4.88,0,0,0-3.7-1.8,3.9,3.9,0,0,0-3,1.4,4.79,4.79,0,0,0-1.2,3.3,4.446,4.446,0,0,0,1.3,3.3,4.1,4.1,0,0,0,3.1,1.4,4.843,4.843,0,0,0,3.6-1.8l1.2,1.1A6.765,6.765,0,0,1,718.5,554.1Z" stroke="#000" stroke-miterlimit="10" stroke-width="1.5"/>
        <path id="Path_3511" data-name="Path 3511" d="M736.1,553.9V543.5h-4.3v-1.6h10.3v1.6h-4.3v10.4Z" stroke="#000" stroke-miterlimit="10" stroke-width="1.5"/>
        <path id="Path_3512" data-name="Path 3512" d="M751.7,553.9V542h1.8v9.4l7.1-9.4h1.7v11.9h-1.8v-9.4l-7.1,9.4Z" stroke="#000" stroke-miterlimit="10" stroke-width="1.5"/>
      </g>
      <path id="Path_3513" data-name="Path 3513" d="M763.2,506.5H321.7a1.538,1.538,0,0,1-1.5-1.5h0a1.538,1.538,0,0,1,1.5-1.5H763.3a1.538,1.538,0,0,1,1.5,1.5h0A1.708,1.708,0,0,1,763.2,506.5Z"/>
      <g id="Group_1238" data-name="Group 1238">
        <path id="Path_3514" data-name="Path 3514" d="M320.5,418.4H337l14.5,43.9h.2l13.8-43.9h16.2V420h-7.2v52.4h7.2V474H359.8v-1.6h7.1V420h-.2l-17.2,55.1h-1.2L329.9,420h-.2v45a9.147,9.147,0,0,0,1.4,5.4,5.809,5.809,0,0,0,4.9,2.1h1.4v1.6H320.6v-1.6h.9a5.809,5.809,0,0,0,4.9-2.1,8.935,8.935,0,0,0,1.4-5.4V420h-7.1v-1.6Z" stroke="#000" stroke-miterlimit="10" stroke-width="2"/>
        <path id="Path_3515" data-name="Path 3515" d="M428.7,473.6V475a14.408,14.408,0,0,1-5-.7l-1.7-.7-.9-.5a12.4,12.4,0,0,1-4.1-4.7,12.264,12.264,0,0,1-3.6,4,14.07,14.07,0,0,1-7.9,2.6,10.038,10.038,0,0,1-6.9-2.2,8.682,8.682,0,0,1-3.1-6.6v-.6a9.466,9.466,0,0,1,4.7-8.3c2.3-1.5,5.5-2.5,9.8-2.9l6.2-.7v-8.3a5.8,5.8,0,0,0-1.7-4.3,7.861,7.861,0,0,0-5.7-2.1,8.85,8.85,0,0,0-5.4,1.6c-1,.6-1.5,1.3-1.5,1.9,0,.3.3.6.8,1a.1.1,0,0,1,.1.1l1.2.7a4.62,4.62,0,0,1,.7.7,3.534,3.534,0,0,1,.6,1.9,3.583,3.583,0,0,1-.9,2.4,3.075,3.075,0,0,1-2.5,1.1,3.545,3.545,0,0,1-2.8-1.3,4.271,4.271,0,0,1-1-2.9,7.485,7.485,0,0,1,2.3-5.2c.3-.3.7-.6,1-.9a12.494,12.494,0,0,1,7.8-2.4,15.433,15.433,0,0,1,8.8,2.4,7.312,7.312,0,0,1,1.6,1.4c1.9,2,2.8,4.7,2.8,8.1v16.9c0,3.8,1.5,6.1,4.5,7C427.4,473.5,428,473.6,428.7,473.6Zm-12.5-9.7v-8.6l-4.6.5a22.3,22.3,0,0,0-5.1,1.1,4.345,4.345,0,0,0-1.7,1.2c-1.4,1.4-2.2,3.6-2.2,6.5v1.1c0,2.6.3,4.4,1,5.5.1.1.1.2.2.3a4.746,4.746,0,0,0,3.7,1.6,8.631,8.631,0,0,0,5.9-2.7,7.966,7.966,0,0,0,2.8-5.2A5.635,5.635,0,0,1,416.2,463.9Z" stroke="#000" stroke-miterlimit="10" stroke-width="2"/>
        <path id="Path_3516" data-name="Path 3516" d="M439.4,438.7h18.5v1.4h-5.3l7.4,12.2,5.5-7.7a4.52,4.52,0,0,0,1-2.4q0-2.1-3-2.1h-1.4v-1.4h14.6v1.4h-1.4a8.21,8.21,0,0,0-4.8,1.3,14.1,14.1,0,0,0-3.6,3.7l-6.1,8.5,11.7,18.9h4.3v1.4H458.5v-1.4h6.4l-8.3-13.6-6,8.4a5.005,5.005,0,0,0-1.1,2.9,2.166,2.166,0,0,0,1,1.9,6.347,6.347,0,0,0,2.8.5h.9V474H439.6v-1.4h.4a8.857,8.857,0,0,0,5.2-1.8,19.177,19.177,0,0,0,4.5-4.5l6.2-8.6L445,440.1h-5.6Z" stroke="#000" stroke-miterlimit="10" stroke-width="2"/>
        <path id="Path_3517" data-name="Path 3517" d="M488.5,438.7h12.1v33.8h5.9v1.4H488.6v-1.4h5.9V440.1h-5.9v-1.4Zm4.2-14.8a3.764,3.764,0,0,1,1.8-3.3,4.395,4.395,0,0,1,2.2-.7,3.9,3.9,0,0,1,3.3,1.7,3.6,3.6,0,0,1,.7,2.2,3.764,3.764,0,0,1-1.8,3.3,3.6,3.6,0,0,1-2.2.7,3.764,3.764,0,0,1-3.3-1.8A3.139,3.139,0,0,1,492.7,423.9Z" stroke="#000" stroke-miterlimit="10" stroke-width="2"/>
        <path id="Path_3518" data-name="Path 3518" d="M537,473.9H519v-1.4h5.9V440.1H519v-1.4h12.1v6h.2a12.615,12.615,0,0,1,3.6-4.7,10.547,10.547,0,0,1,6.7-2.5,9.779,9.779,0,0,1,6.8,2.6,12.38,12.38,0,0,1,3.5,5.4h.2a18.008,18.008,0,0,1,3.5-4.7,11.4,11.4,0,0,1,7.9-3.3,10.224,10.224,0,0,1,8.1,3.5,14.672,14.672,0,0,1,2.7,8.6v22.9h5.9v1.4H562.3v-1.4h5.9V446.2a9.827,9.827,0,0,0-1.4-5.4,4.9,4.9,0,0,0-4-1.8,8.274,8.274,0,0,0-5.9,2.7,13.788,13.788,0,0,0-4.1,10.4v20.4h5.9v1.4H540.8v-1.4h5.9V446.2a9.827,9.827,0,0,0-1.4-5.4,4.9,4.9,0,0,0-4-1.8,8.449,8.449,0,0,0-5.9,2.7,13.788,13.788,0,0,0-4.1,10.4v20.4h5.9v1.4H537Z" stroke="#000" stroke-miterlimit="10" stroke-width="2"/>
        <path id="Path_3519" data-name="Path 3519" d="M592.4,438.7h12.1v22.8a43.331,43.331,0,0,0,.5,8.2c.1.4.2.7.3,1a4.535,4.535,0,0,0,4.5,2.9,7.331,7.331,0,0,0,4.8-2.1c2.9-2.6,4.5-6.6,4.7-12.1V440.1h-5.9v-1.4h12.1v33.8h5.9v1.4H619.3v-6h-.2a13.031,13.031,0,0,1-4,5.1,10.455,10.455,0,0,1-6.4,2.1,10.051,10.051,0,0,1-6.4-2.1l-.3-.3q-3.75-3.15-3.9-11.4V440.2h-5.9v-1.5Z" stroke="#000" stroke-miterlimit="10" stroke-width="2"/>
        <path id="Path_3520" data-name="Path 3520" d="M662,473.9H644.1v-1.4H650V440.1h-5.9v-1.4h12.1v6h.2A12.615,12.615,0,0,1,660,440a10.547,10.547,0,0,1,6.7-2.5,9.779,9.779,0,0,1,6.8,2.6,12.38,12.38,0,0,1,3.5,5.4h.2a18.008,18.008,0,0,1,3.5-4.7,11.4,11.4,0,0,1,7.9-3.3,10.224,10.224,0,0,1,8.1,3.5,14.672,14.672,0,0,1,2.7,8.6v22.9h5.9v1.4H687.4v-1.4h5.9V446.2a9.827,9.827,0,0,0-1.4-5.4,4.9,4.9,0,0,0-4-1.8,8.274,8.274,0,0,0-5.9,2.7,13.788,13.788,0,0,0-4.1,10.4v20.4h5.9v1.4H665.9v-1.4h5.9V446.2a9.827,9.827,0,0,0-1.4-5.4,4.9,4.9,0,0,0-4-1.8,8.449,8.449,0,0,0-5.9,2.7,13.788,13.788,0,0,0-4.1,10.4v20.4h5.9v1.4H662Z" stroke="#000" stroke-miterlimit="10" stroke-width="2"/>
      </g>
      <g id="Group_1239" data-name="Group 1239">
        <path id="Path_3521" data-name="Path 3521" d="M723.7,454.4h17.8V436.6h3.2v17.8h17.8v3.2H744.7v17.8h-3.2V457.6H723.7Z" fill="#000" stroke="#000" stroke-miterlimit="10" stroke-width="1"/>
      </g>
    </g>
    <g id="Слой_2">
      <path id="Path_3522" data-name="Path 3522" d="M209.6,366.8s8.8,216.5,9.8,221.5" fill="none" stroke="#000" stroke-linecap="round" stroke-miterlimit="10" stroke-width="3"/>
      <path id="Path_3523" data-name="Path 3523" d="M245.2,358.8s28.9,195.6,27.6,228.5" fill="none" stroke="#000" stroke-linecap="round" stroke-miterlimit="10" stroke-width="3"/>
      <path id="Path_3524" data-name="Path 3524" d="M272.8,362.6c-5.9,68.8-5,68.5-11.6,100.1l-1.2,6.9" fill="none" stroke="#000" stroke-linecap="round" stroke-miterlimit="10" stroke-width="3"/>
      <path id="Path_3525" data-name="Path 3525" d="M216.3,528.6s-13.4,54.3-12.3,58.2" fill="none" stroke="#000" stroke-linecap="round" stroke-miterlimit="10" stroke-width="3"/>
      <path id="Path_3526" data-name="Path 3526" d="M211.1,386.7l35.6-10.9,1.3,9-37.1,11.9.4,9.6,38.2-12.8,1.6,10.2-38.5,11.7.4,10.1,39.7-12,1.4,9.6-40.7,13.3.4,12.2,41.9-15.3,1.9,13.6-43.3,15.6.6,14.3,44.8-17.3.8,14-45.4,16.7.7,13.2,46.8-16.9,1.6,11-48,16.7-.2,15.5,49-19,1.8,13.3-49.2,17.7.4,15,50.5-17.1,2.2,15.6L219,570.8l.4,15.5,52.7-15.1" fill="none" stroke="#000" stroke-linecap="round" stroke-miterlimit="10" stroke-width="3"/>
      <path id="Path_3527" data-name="Path 3527" d="M248.2,378l22.8,5-.6,7.5-21-4,1.5,8.7,18.6,3.8-.8,8.2-16.3-4,.9,7.9L268,414l-.8,6.9-13.1-2.5.7,8.2,12.6,1.6-1.1,6.8-10.1-.7,1,7.6,7.3.7-1.1,7.2H259l.6,6.6,2.9-.7" fill="none" stroke="#000" stroke-linecap="round" stroke-miterlimit="10" stroke-width="2"/>
      <path id="Path_3528" data-name="Path 3528" d="M211.1,550.5h6.4v11.4h-9l-1.8,8.1,11.7.1.6,9.8-13.8-.3" fill="none" stroke="#000" stroke-linecap="round" stroke-miterlimit="10" stroke-width="2"/>
    </g>
  </g>
</svg>
